# xmcd
#
# Track frame offsets:
# 150
# 16615
# 32623
# 48080
# 66797
# 82774
# 99752
# 113480
# 130804
# 148365
# 162891
#
# Disc length: 2386 seconds
#
# Revision: 0
# Processed by: cddbd v1.5.2PL0 Copyright (c) Steve Scherf et al.
# Submitted via: Audion 3.0.2 (http://www.panic.com/audion/)
#
DISCID=7809500b
DTITLE=The Reclamators - Sing It, White Boy
DYEAR=1900
DGENRE=
TTITLE0=Bullet Blues
TTITLE1=RedHouse
TTITLE2=Sweet Home Chicago
TTITLE3=Blues In The Basement
TTITLE4=Hothouse Blues
TTITLE5=Bright Lights, Big City
TTITLE6=Man In The Box
TTITLE7=Been Retired From Your Love
TTITLE8=Inflation Blues
TTITLE9=Matchbox Blues
TTITLE10=Steamroller Blues
EXTD=
EXTT0=
EXTT1=
EXTT2=
EXTT3=
EXTT4=
EXTT5=
EXTT6=
EXTT7=
EXTT8=
EXTT9=
EXTT10=
PLAYORDER=
